HIERARCHY
ROOT Hips
{
	OFFSET 0.000000 89.005402 0.000000
	CHANNELS 6 Xposition Yposition Zposition Xrotation Yrotation Zrotation
	JOINT Spine
	{
		OFFSET 0.116900 10.681000 0.373400
		CHANNELS 3 Xrotation Yrotation Zrotation
		JOINT Spine1
		{
			OFFSET 0.000000 13.840401 0.053500
			CHANNELS 3 Xrotation Yrotation Zrotation
			JOINT Spine2
			{
				OFFSET 0.000000 14.712700 -0.366200
				CHANNELS 3 Xrotation Yrotation Zrotation
				JOINT Neck
				{
					OFFSET 0.000000 35.415497 -3.314200
					CHANNELS 3 Xrotation Yrotation Zrotation
					JOINT Head
					{
						OFFSET 0.000000 16.899200 1.218300
						CHANNELS 3 Xrotation Yrotation Zrotation
						JOINT HeadTop_End
						{
							OFFSET 0.000000 22.206207 2.192500
							CHANNELS 3 Xrotation Yrotation Zrotation
							End Site
							{
								OFFSET 0.000000 22.314178 0.000000
							}
						}
					}
				}
				JOINT LeftShoulder
				{
					OFFSET 12.896400 26.716293 -4.548400
					CHANNELS 3 Xrotation Yrotation Zrotation
					JOINT LeftArm
					{
						OFFSET 19.027000 -4.857010 -1.718400
						CHANNELS 3 Xrotation Yrotation Zrotation
						JOINT LeftForeArm
						{
							OFFSET 24.179897 0.000000 0.000000
							CHANNELS 3 Xrotation Yrotation Zrotation
							JOINT LeftHand
							{
								OFFSET 27.156403 0.000000 0.000000
								CHANNELS 3 Xrotation Yrotation Zrotation
								JOINT LeftHandIndex1
								{
									OFFSET 16.441200 0.000000 0.000000
									CHANNELS 3 Xrotation Yrotation Zrotation
									JOINT LeftHandIndex2
									{
										OFFSET 4.821899 0.000000 0.000000
										CHANNELS 3 Xrotation Yrotation Zrotation
										JOINT LeftHandIndex3
										{
											OFFSET 6.386497 0.000000 0.000000
											CHANNELS 3 Xrotation Yrotation Zrotation
											JOINT LeftHandIndex4
											{
												OFFSET 5.188988 0.000000 0.000000
												CHANNELS 3 Xrotation Yrotation Zrotation
												End Site
												{
													OFFSET -0.178703 5.185913 0.000177
												}
											}
										}
									}
								}
								JOINT LeftHandThumb1
								{
									OFFSET 6.534897 -5.032593 5.900300
									CHANNELS 3 Xrotation Yrotation Zrotation
									JOINT LeftHandThumb2
									{
										OFFSET 3.818176 -2.204422 2.204423
										CHANNELS 3 Xrotation Yrotation Zrotation
										JOINT LeftHandThumb3
										{
											OFFSET 3.252098 -1.877594 1.877601
											CHANNELS 3 Xrotation Yrotation Zrotation
											JOINT LeftHandThumb4
											{
												OFFSET 5.251778 -3.032120 3.032117
												CHANNELS 3 Xrotation Yrotation Zrotation
												End Site
												{
													OFFSET 0.000023 6.780014 0.000000
												}
											}
										}
									}
								}
							}
						}
					}
				}
				JOINT RightShoulder
				{
					OFFSET -12.896300 26.716293 -4.548400
					CHANNELS 3 Xrotation Yrotation Zrotation
					JOINT RightArm
					{
						OFFSET -19.027000 -4.857010 -1.718400
						CHANNELS 3 Xrotation Yrotation Zrotation
						JOINT RightForeArm
						{
							OFFSET -24.179897 0.000000 0.000000
							CHANNELS 3 Xrotation Yrotation Zrotation
							JOINT RightHand
							{
								OFFSET -27.156403 0.000000 0.000000
								CHANNELS 3 Xrotation Yrotation Zrotation
								JOINT RightHandThumb1
								{
									OFFSET -6.591202 -4.852203 5.988100
									CHANNELS 3 Xrotation Yrotation Zrotation
									JOINT RightHandThumb2
									{
										OFFSET -3.818176 -2.204422 2.204423
										CHANNELS 3 Xrotation Yrotation Zrotation
										JOINT RightHandThumb3
										{
											OFFSET -3.252098 -1.877594 1.877601
											CHANNELS 3 Xrotation Yrotation Zrotation
											JOINT RightHandThumb4
											{
												OFFSET -5.251778 -3.032120 3.032117
												CHANNELS 3 Xrotation Yrotation Zrotation
												End Site
												{
													OFFSET -0.000023 6.780014 0.000000
												}
											}
										}
									}
								}
								JOINT RightHandIndex1
								{
									OFFSET -16.029404 0.000000 0.000000
									CHANNELS 3 Xrotation Yrotation Zrotation
									JOINT RightHandIndex2
									{
										OFFSET -5.213303 0.000000 0.000000
										CHANNELS 3 Xrotation Yrotation Zrotation
										JOINT RightHandIndex3
										{
											OFFSET -6.386528 0.000000 0.000000
											CHANNELS 3 Xrotation Yrotation Zrotation
											JOINT RightHandIndex4
											{
												OFFSET -5.189026 0.000000 0.000000
												CHANNELS 3 Xrotation Yrotation Zrotation
												End Site
												{
													OFFSET 0.236702 5.183624 0.001972
												}
											}
										}
									}
								}
							}
						}
					}
				}
			}
		}
	}
	JOINT LeftUpLeg
	{
		OFFSET 14.073000 -7.904099 -1.463000
		CHANNELS 3 Xrotation Yrotation Zrotation
		JOINT LeftLeg
		{
			OFFSET -0.109806 -34.073280 4.093200
			CHANNELS 3 Xrotation Yrotation Zrotation
			JOINT LeftFoot
			{
				OFFSET 0.109806 -29.899420 -6.319000
				CHANNELS 3 Xrotation Yrotation Zrotation
				JOINT LeftToeBase
				{
					OFFSET 1.551100 -14.988700 20.535801
					CHANNELS 3 Xrotation Yrotation Zrotation
					JOINT LeftToe_End
					{
						OFFSET 0.221200 0.570800 13.248301
						CHANNELS 3 Xrotation Yrotation Zrotation
						End Site
						{
							OFFSET 0.000000 13.262435 0.000000
						}
					}
				}
			}
		}
	}
	JOINT RightUpLeg
	{
		OFFSET -13.839300 -7.904099 -1.463000
		CHANNELS 3 Xrotation Yrotation Zrotation
		JOINT RightLeg
		{
			OFFSET 0.109694 -34.073219 4.093300
			CHANNELS 3 Xrotation Yrotation Zrotation
			JOINT RightFoot
			{
				OFFSET -0.109694 -29.899384 -6.319200
				CHANNELS 3 Xrotation Yrotation Zrotation
				JOINT RightToeBase
				{
					OFFSET -1.551100 -14.988700 20.535801
					CHANNELS 3 Xrotation Yrotation Zrotation
					JOINT RightToe_End
					{
						OFFSET -0.221200 0.570900 13.248299
						CHANNELS 3 Xrotation Yrotation Zrotation
						End Site
						{
							OFFSET 0.000000 13.262440 0.000000
						}
					}
				}
			}
		}
	}
}
MOTION
Frames: 4
Frame Time: 0.033333
15.246876 35.786541 216.068573 58.401505 4.532687 -2.082087 15.445892 -0.920434 -1.373641 30.905336 0.884253 0.344495 30.905329 0.884252 0.344494 0.545236 -3.267745 -8.512358 18.331497 -2.283633 3.127353 0.000002 -0.000001 -0.000001 0.540840 -5.077372 -13.029382 -52.265072 -36.478507 -11.693187 -3.282426 -97.375241 -3.255343 47.437904 29.601442 56.536775 -6.158511 -5.679907 1.001392 0.736547 1.726167 -19.923325 0.000001 -0.000001 0.000007 -0.000000 -0.000001 0.000002 -32.438693 -9.019487 11.382200 10.537394 10.748740 5.625022 0.000004 -0.000003 0.000015 0.000002 0.000000 0.000001 -22.958067 7.110924 -18.909471 -58.428976 8.908238 15.793518 -3.937917 96.082149 3.915832 27.811275 -29.903439 -37.579568 -39.613697 -0.028495 -7.741901 6.344006 -0.854698 -9.207314 0.000008 -0.000005 -0.000003 -0.000001 -0.000000 -0.000000 -4.428053 6.576783 0.630625 0.049912 -0.570728 5.172433 0.000009 -0.000011 -0.000008 -0.000000 -0.000000 -0.000001 -60.408713 -20.796678 15.584627 132.054932 -3.183567 -2.122718 -40.470295 8.479704 -10.578961 -50.232565 26.818907 -39.441272 -0.000000 -0.000001 -0.000001 -73.041954 8.270072 -5.481774 108.746488 4.133272 2.537987 28.100308 8.187431 16.795075 55.131446 1.564088 -1.120869 -0.000000 -0.000001 -0.000000 
15.502926 36.228298 215.209091 58.133728 4.569148 -2.336688 15.511421 -0.722027 -1.137932 31.027603 1.043420 0.537086 31.027630 1.043421 0.537084 -0.193831 -3.176190 -8.038489 16.864955 -2.254864 3.735383 -0.000001 -0.000000 -0.000000 0.549803 -4.899382 -12.734268 -53.857664 -37.515354 -12.136476 -3.635060 -96.707644 -3.610220 46.617725 29.558456 55.732366 -6.158507 -5.679932 1.001392 0.736544 1.726167 -19.923327 0.000000 -0.000000 0.000005 -0.000000 -0.000000 -0.000000 -32.438699 -9.019485 11.382194 10.537390 10.748737 5.625022 0.000003 -0.000002 0.000014 -0.000001 0.000000 -0.000000 -22.967795 7.041280 -18.795231 -59.508522 10.336825 14.339062 -6.145896 93.841444 6.132215 26.705654 -28.882169 -37.208582 -39.613690 -0.028505 -7.741903 6.343998 -0.854689 -9.207291 0.000006 -0.000006 -0.000004 0.000000 -0.000000 0.000000 -4.428053 6.576794 0.630625 0.049914 -0.570750 5.172437 0.000009 -0.000009 -0.000008 0.000000 -0.000001 0.000001 -60.741111 -22.148335 15.922747 132.347250 -4.299850 -2.354348 -41.209690 8.253094 -11.405781 -53.553194 23.510952 -35.388774 -0.000000 0.000001 -0.000000 -71.948741 7.731657 -5.657359 109.777649 4.078160 2.500926 23.623802 7.276971 16.299133 60.006026 6.949186 -0.453572 0.000000 0.000000 0.000000 
15.728735 36.664875 214.250641 57.789964 4.349577 -2.558003 15.575502 -0.508211 -0.970046 31.148067 1.212723 0.581087 31.148094 1.212725 0.581082 -0.935486 -3.041272 -7.520672 15.283977 -2.061850 4.291132 0.000001 0.000000 -0.000001 0.557761 -4.726684 -12.434143 -55.787032 -38.563706 -12.679052 -4.194963 -95.924836 -4.172628 45.889490 29.306084 54.610955 -6.158511 -5.679902 1.001394 0.736548 1.726171 -19.923331 0.000002 -0.000002 0.000005 -0.000000 0.000004 0.000002 -32.438682 -9.019484 11.382212 10.537387 10.748760 5.625019 0.000001 -0.000002 0.000013 0.000001 -0.000001 -0.000000 -23.024776 6.855313 -18.877772 -60.596892 11.791775 13.282619 -19.388028 91.240276 19.383754 25.569952 -27.638675 -36.935406 -39.613700 -0.028489 -7.741885 6.344014 -0.854706 -9.207314 0.000004 -0.000006 -0.000003 -0.000000 -0.000000 -0.000000 -4.428055 6.576787 0.630624 0.049913 -0.570741 5.172440 0.000009 -0.000009 -0.000006 0.000000 -0.000000 -0.000000 -60.228717 -23.108702 16.661160 132.672408 -5.593151 -2.622685 -42.836556 8.728106 -12.502900 -55.076969 19.602501 -32.466778 0.000000 -0.000003 0.000001 -70.612729 7.403001 -5.480393 110.704492 3.819422 2.423263 19.073682 6.242438 15.765789 66.058052 23.036538 -0.193022 0.000000 0.000002 -0.000000 
15.830822 36.933632 213.138000 57.365284 3.958399 -2.598617 15.641179 -0.378753 -0.962958 31.275156 1.378144 0.493978 31.275136 1.378144 0.493977 -1.706198 -2.850350 -6.992761 13.624242 -1.705722 4.870336 -0.000000 -0.000001 0.000000 0.565867 -4.523327 -12.092014 -58.025148 -39.600904 -13.385077 -5.056840 -95.014215 -5.037574 45.238354 28.887513 53.250313 -6.158509 -5.679901 1.001393 0.736538 1.726154 -19.923332 0.000001 -0.000001 0.000004 0.000001 0.000001 0.000002 -32.438696 -9.019487 11.382204 10.537384 10.748740 5.625028 0.000005 -0.000002 0.000015 0.000001 -0.000001 -0.000000 -23.090496 6.656915 -19.021647 -61.698280 13.387928 12.400901 12.321206 88.064149 -12.314412 24.404208 -26.183935 -36.713257 -39.613687 -0.028487 -7.741898 6.343993 -0.854704 -9.207310 0.000007 -0.000006 -0.000003 0.000003 0.000000 0.000000 -4.428054 6.576778 0.630626 0.049913 -0.570734 5.172440 0.000009 -0.000008 -0.000009 0.000001 -0.000002 -0.000001 -58.184824 -24.017901 18.344930 133.034449 -8.292242 -3.193369 -46.699287 9.300379 -13.157493 -55.783162 15.713660 -29.235904 -0.000001 0.000001 0.000001 -70.155209 7.541858 -5.397277 111.373830 3.847151 2.414227 16.839659 5.969219 15.611456 48.676402 58.672807 11.197050 0.000001 -0.000000 0.000000 
